<svg width="40" height="40" viewBox="0 0 40 40" fill="none" xmlns="http://www.w3.org/2000/svg">
<path fill-rule="evenodd" clip-rule="evenodd" d="M19.6264 11.1316L21.7602 7.29065C23.0196 5.02389 21.0238 2.4002 18.5778 2.71794C17.3353 2.87934 16.0493 2.99997 15 2.99997C13.9507 2.99997 12.6647 2.87934 11.4222 2.71794C8.97621 2.4002 6.98044 5.0239 8.23975 7.29065L10.3736 11.1316C5.62428 11.9084 2 16.0309 2 21V32C2 35.3137 4.68629 38 8 38H15C15.5523 38 16 37.5523 16 37C16 36.4477 15.5523 36 15 36H8C5.79086 36 4 34.2091 4 32V21C4 16.5817 7.58172 13 12 13H18C22.4183 13 26 16.5817 26 21V21.5C26 22.0523 26.4477 22.5 27 22.5C27.5523 22.5 28 22.0523 28 21.5V21C28 16.0309 24.3757 11.9084 19.6264 11.1316ZM20.0119 6.31936C20.413 5.59751 19.7798 4.5786 18.8355 4.70127C17.5618 4.86672 16.1769 4.99997 15 4.99997C13.8231 4.99997 12.4382 4.86672 11.1645 4.70127C10.2202 4.5786 9.58704 5.59752 9.98807 6.31937L12.5884 11H17.4116L20.0119 6.31936Z" fill="#C51162"/>
<path fill-rule="evenodd" clip-rule="evenodd" d="M18 37C18 36.4477 18.4477 36 19 36H22.1707C22.0602 35.6872 22 35.3506 22 35C22 34.2316 22.2889 33.5308 22.7639 33C22.2889 32.4692 22 31.7684 22 31C22 30.2316 22.2889 29.5308 22.7639 29C22.2889 28.4692 22 27.7684 22 27C22 25.3431 23.3431 24 25 24H35C36.6569 24 38 25.3431 38 27C38 27.7684 37.7111 28.4692 37.2361 29C37.7111 29.5308 38 30.2316 38 31C38 31.7684 37.7111 32.4692 37.2361 33C37.7111 33.5308 38 34.2316 38 35C38 36.6569 36.6569 38 35 38H25L24.9863 38H19C18.4477 38 18 37.5523 18 37ZM35 30H25C24.4477 30 24 30.4477 24 31C24 31.5523 24.4477 32 25 32H35C35.5523 32 36 31.5523 36 31C36 30.4477 35.5523 30 35 30ZM25 28H35C35.5523 28 36 27.5523 36 27C36 26.4477 35.5523 26 35 26H25C24.4477 26 24 26.4477 24 27C24 27.5523 24.4477 28 25 28ZM25 34H35C35.5523 34 36 34.4477 36 35C36 35.5523 35.5523 36 35 36H27.0079L27 36H24.9921C24.4435 35.9957 24 35.5496 24 35C24 34.4477 24.4477 34 25 34Z" fill="#C51162"/>
<path d="M13.8872 20.0637L13.8691 20.0705C12.7739 20.4826 12 21.4743 12 22.6298C12 22.9941 12.0769 23.3423 12.2166 23.6611C12.3672 24.0046 12.5906 24.3141 12.8691 24.5733C13.4131 25.0794 14.1675 25.3934 15 25.3934C15.2103 25.3934 15.4088 25.4365 15.5834 25.5125C15.9863 25.6881 16.2618 26.0394 16.2618 26.4432C16.2618 26.8679 15.9571 27.2345 15.52 27.3997C15.4835 27.4135 15.446 27.4259 15.4077 27.4368C15.2797 27.4732 15.1426 27.493 15 27.493C14.8574 27.493 14.7202 27.4732 14.5923 27.4368C14.554 27.4259 14.5166 27.4135 14.48 27.3997C14.4444 27.3862 14.4096 27.3714 14.3758 27.3553C14.1706 27.2577 14.0013 27.1136 13.8888 26.9403C13.7928 26.7922 13.7382 26.6229 13.7382 26.4432C13.7382 25.97 13.3491 25.5863 12.8691 25.5863C12.3912 25.5863 12.0034 25.9667 12 26.437L12 26.4432C12 26.7543 12.0561 27.0535 12.1594 27.3327C12.44 28.0907 13.0687 28.7014 13.8691 29.0025L13.877 29.0055C13.9599 29.0364 14.0446 29.064 14.1309 29.0882V29.1431C14.1309 29.2269 14.1431 29.3079 14.1658 29.3844C14.2715 29.7401 14.605 30 15 30C15.395 30 15.7285 29.7401 15.8342 29.3844C15.8569 29.3079 15.8691 29.2269 15.8691 29.1431V29.0882C15.9554 29.064 16.0401 29.0364 16.123 29.0055L16.1309 29.0025C17.2261 28.5904 18 27.5987 18 26.4432C18 26.0789 17.9231 25.7307 17.7834 25.4119C17.6328 25.0684 17.4094 24.7589 17.1309 24.4997C16.5869 23.9936 15.8325 23.6796 15 23.6796C14.7897 23.6796 14.5912 23.6365 14.4166 23.5605C14.0137 23.385 13.7382 23.0336 13.7382 22.6298C13.7382 22.2051 14.0429 21.8385 14.48 21.6733C14.5165 21.6595 14.554 21.6471 14.5923 21.6362C14.7203 21.5998 14.8574 21.58 15 21.58C15.1426 21.58 15.2798 21.5998 15.4077 21.6362C15.446 21.6471 15.4834 21.6595 15.52 21.6733C15.5556 21.6868 15.5904 21.7016 15.6242 21.7177C15.8294 21.8153 15.9987 21.9594 16.1112 22.1328C16.2072 22.2808 16.2618 22.4501 16.2618 22.6298C16.2618 23.103 16.6509 23.4867 17.1309 23.4867C17.6088 23.4867 17.9966 23.1063 18 22.636L18 22.6298C18 22.3187 17.9439 22.0195 17.8406 21.7403C17.56 20.9824 16.9313 20.3716 16.1309 20.0705L16.1128 20.0637C16.0332 20.0343 15.9519 20.008 15.8691 19.9848V19.8569C15.8691 19.8011 15.8637 19.7465 15.8533 19.6936C15.776 19.2985 15.4234 19 15 19C14.5766 19 14.224 19.2985 14.1467 19.6936C14.1363 19.7465 14.1309 19.8011 14.1309 19.8569V19.9848C14.0481 20.008 13.9668 20.0343 13.8872 20.0637Z" fill="#C51162"/>
</svg>
