<svg width="56" height="56" viewBox="0 0 56 56" fill="none" xmlns="http://www.w3.org/2000/svg">
<path d="M43.376 12.3829L47.3149 3.12061C47.5291 2.61683 47.3378 2.03222 46.8672 1.75244L44.9344 0.603672C43.4191 -0.297141 41.4837 -0.152985 40.1185 0.961875L39.8202 1.20545C39.0784 1.8115 38.0016 1.8115 37.2589 1.20502L37.247 1.19528C35.7006 -0.0674533 33.4576 -0.0655939 31.9134 1.20009C31.1711 1.80855 30.093 1.8092 29.3499 1.20228L29.0468 0.954656C27.6881 -0.155172 25.7592 -0.303156 24.2471 0.5865L22.2626 1.75397C21.788 2.0332 21.595 2.62153 21.8119 3.12761L25.7753 12.375C22.9084 13.4104 20.4621 15.3906 18.857 17.9918C18.5397 18.5057 18.6993 19.1797 19.2134 19.4969C19.7274 19.814 20.4013 19.6544 20.7186 19.1403C22.0962 16.9078 24.212 15.2187 26.6897 14.3691H42.436C47.0237 15.9403 50.094 20.2272 50.094 25.0899V27.9918C50.094 28.5958 50.5836 29.0856 51.1877 29.0856C51.7918 29.0856 52.2815 28.5958 52.2815 27.9918V25.0899C52.2815 19.3708 48.7209 14.321 43.376 12.3829ZM41.0844 12.1816H28.0721L24.2015 3.15102L25.3562 2.47191C26.0828 2.04425 27.0098 2.11545 27.6629 2.64887L27.966 2.89639C29.5123 4.15956 31.7556 4.1577 33.3001 2.89191C34.0422 2.28356 35.1202 2.2828 35.8641 2.89016L35.876 2.89989C37.4196 4.16044 39.6602 4.16044 41.2037 2.89967L41.502 2.65609C42.1582 2.12037 43.0882 2.05114 43.8165 2.48394L44.9275 3.14434L41.0844 12.1816Z" fill="#C51162"/>
<path d="M51.9608 31.3507C51.7573 31.1473 51.4752 31.0303 51.1875 31.0303C50.8998 31.0303 50.6177 31.1472 50.4142 31.3507C50.2108 31.5553 50.0938 31.8363 50.0938 32.124C50.0938 32.4117 50.2108 32.6939 50.4142 32.8972C50.6177 33.1017 50.8998 33.2188 51.1875 33.2188C51.4752 33.2188 51.7573 33.1017 51.9608 32.8972C52.1642 32.6939 52.2812 32.4117 52.2812 32.124C52.2812 31.8363 52.1642 31.5541 51.9608 31.3507Z" fill="#C51162"/>
<path d="M16.7323 48.7895C16.5288 48.586 16.2466 48.469 15.959 48.469C15.6713 48.469 15.3891 48.586 15.1857 48.7895C14.9823 48.9929 14.8652 49.2751 14.8652 49.5627C14.8652 49.8504 14.9823 50.1326 15.1857 50.336C15.3891 50.5394 15.6713 50.6565 15.959 50.6565C16.2466 50.6565 16.5288 50.5395 16.7323 50.336C16.9357 50.1326 17.0527 49.8504 17.0527 49.5627C17.0527 49.2751 16.9357 48.9929 16.7323 48.7895Z" fill="#C51162"/>
<path d="M56 45.7106C56 44.4997 55.4793 43.4084 54.6502 42.6481C55.4792 41.8877 56 40.7965 56 39.5856C56 37.2938 54.1355 35.4293 51.8438 35.4293H40.0312C37.7395 35.4293 35.875 37.2938 35.875 39.5856C35.875 40.7965 36.3957 41.8877 37.2248 42.6481C36.3958 43.4084 35.875 44.4997 35.875 45.7106C35.875 46.9215 36.3957 48.0127 37.2248 48.7731C36.3958 49.5334 35.875 50.6247 35.875 51.8356C35.875 52.5475 36.0551 53.218 36.3719 53.8043H31.9181V49.5275C31.9181 43.7434 27.4715 38.9791 21.8172 38.4715C21.6639 38.4259 21.5027 38.4157 21.3453 38.4388C21.3269 38.4379 21.3084 38.4375 21.2901 38.4367C22.7099 37.0496 23.5936 35.116 23.5936 32.979V22.0856C23.5936 21.4816 23.1039 20.9918 22.4999 20.9918H14.3978C11.049 20.9918 8.32453 23.7162 8.32453 27.065V32.9789C8.32453 35.1159 9.20828 37.0495 10.6281 38.4366C10.6097 38.4374 10.5912 38.4378 10.5728 38.4387C10.4155 38.4157 10.2542 38.4258 10.1009 38.4714C4.44664 38.9791 0 43.7435 0 49.5275V54.8981C0 55.502 0.489672 55.9918 1.09375 55.9918H17.9375H30.8244H40.0312H51.1875H51.8438C54.1355 55.9918 56 54.1273 56 51.8356C56 50.6247 55.4793 49.5334 54.6502 48.7731C55.4793 48.0127 56 46.9215 56 45.7106ZM10.512 28.597V27.065C10.512 24.9224 12.2552 23.1793 14.3978 23.1793H21.4061V26.1063C21.4061 27.5853 20.2029 28.7885 18.7238 28.7885H10.512V28.597ZM10.512 32.979V30.976H18.7238C19.7144 30.976 20.6363 30.678 21.4061 30.1679V32.9789C21.4061 35.9823 18.9626 38.4259 15.9591 38.4259C12.9557 38.4259 10.512 35.9824 10.512 32.979ZM18.8638 40.6134L15.959 43.5182L13.0542 40.6134H18.8638ZM29.7306 53.8044H17.9375V53.8043H2.1875V50.6565H11.1128C11.7169 50.6565 12.2066 50.1667 12.2066 49.5628C12.2066 48.9588 11.7169 48.469 11.1128 48.469H2.25258C2.73602 44.4039 5.96455 41.1709 10.0277 40.6804L15.1857 45.8384C15.3993 46.0519 15.6792 46.1588 15.9591 46.1588C16.239 46.1588 16.519 46.0519 16.7325 45.8384L21.8905 40.6804C26.3009 41.2127 29.7306 44.976 29.7306 49.5276V53.8044ZM51.8438 53.8043H51.1875H40.0312C38.9457 53.8043 38.0625 52.9211 38.0625 51.8356C38.0625 50.75 38.9457 49.8668 40.0312 49.8668H51.8438C52.9293 49.8668 53.8125 50.75 53.8125 51.8356C53.8125 52.9211 52.9293 53.8043 51.8438 53.8043ZM51.8438 47.6793H40.0312C38.9457 47.6793 38.0625 46.7961 38.0625 45.7106C38.0625 44.625 38.9457 43.7418 40.0312 43.7418H51.8438C52.9293 43.7418 53.8125 44.625 53.8125 45.7106C53.8125 46.7961 52.9293 47.6793 51.8438 47.6793ZM51.8438 41.5543H40.0312C38.9457 41.5543 38.0625 40.6711 38.0625 39.5856C38.0625 38.5 38.9457 37.6168 40.0312 37.6168H51.8438C52.9293 37.6168 53.8125 38.5 53.8125 39.5856C53.8125 40.6711 52.9293 41.5543 51.8438 41.5543Z" fill="#C51162"/>
<path d="M40.9063 24.9367C40.0307 24.9367 39.3184 24.3356 39.3184 23.5968C39.3184 22.8579 40.0307 22.2568 40.9063 22.2568C41.7818 22.2568 42.4942 22.8579 42.4942 23.5968C42.4942 24.2007 42.9838 24.6905 43.5879 24.6905C44.192 24.6905 44.6817 24.2007 44.6817 23.5968C44.6817 22.007 43.5501 20.66 42 20.2208V20.0575C42 19.4535 41.5103 18.9637 40.9063 18.9637C40.3022 18.9637 39.8125 19.4535 39.8125 20.0575V20.2208C38.2626 20.66 37.1309 22.007 37.1309 23.5968C37.1309 25.5418 38.8244 27.1242 40.9063 27.1242C41.7818 27.1242 42.4942 27.7253 42.4942 28.4642C42.4942 29.203 41.7818 29.8041 40.9063 29.8041C40.0307 29.8041 39.3184 29.203 39.3184 28.4642C39.3184 27.8602 38.8287 27.3704 38.2246 27.3704C37.6205 27.3704 37.1309 27.8602 37.1309 28.4642C37.1309 30.0539 38.2625 31.4009 39.8125 31.8401V31.9102C39.8125 32.5142 40.3022 33.004 40.9063 33.004C41.5103 33.004 42 32.5142 42 31.9102V31.8401C43.55 31.4009 44.6817 30.0539 44.6817 28.4642C44.6817 26.5192 42.9881 24.9367 40.9063 24.9367Z" fill="#C51162"/>
</svg>
