<svg width="56" height="56" viewBox="0 0 56 56" fill="none" xmlns="http://www.w3.org/2000/svg">
<g clip-path="url(#clip0)">
<path d="M19.0332 41.2435C19.0221 41.2404 19.011 41.2381 18.9998 41.2354C20.0236 40.0923 20.6476 38.5841 20.6476 36.9325V32.0832C20.6476 29.2286 18.3252 26.9062 15.4706 26.9062H8.82707C8.2231 26.9062 7.73332 27.3959 7.73332 28V36.9325C7.73332 38.5841 8.35741 40.0923 9.38105 41.2354C9.3699 41.2381 9.35874 41.2404 9.34769 41.2436C4.62127 41.679 0.907227 45.6644 0.907227 50.5025V54.9062C0.907227 55.5102 1.39701 56 2.00098 56H26.3801C26.9841 56 27.4739 55.5102 27.4739 54.9062V50.5024C27.4738 45.6642 23.7596 41.6789 19.0332 41.2435ZM14.1905 41.2022C11.8362 41.2022 9.92082 39.2868 9.92082 36.9325V34.9766C10.5161 35.3019 11.1984 35.487 11.9234 35.487H18.4602V36.9325C18.4603 39.2868 16.5448 41.2022 14.1905 41.2022ZM16.097 43.3897L14.1904 45.2963L12.2838 43.3897H16.097ZM9.92071 29.0938H15.4707C17.1191 29.0938 18.4602 30.4348 18.4602 32.0832V33.2995H11.9234C10.8191 33.2995 9.92071 32.4011 9.92071 31.2969V29.0938ZM3.09451 53.8125V50.5024C3.09451 46.9033 5.78218 43.9219 9.2556 43.4552L13.4169 47.6165C13.6305 47.83 13.9104 47.9369 14.1903 47.9369C14.4702 47.9369 14.7501 47.83 14.9637 47.6165L19.1251 43.4551C22.5984 43.9218 25.2861 46.9032 25.2861 50.5023V53.8125H3.09451Z" fill="#C51162"/>
<path d="M49.6959 42.0539C50.5371 41.2197 51.059 40.0641 51.059 38.7887V34.3416C51.059 31.8179 49.794 29.5851 47.8659 28.2404C47.8834 28.1625 47.8927 28.082 47.8927 28V25.3997C50.4497 25.0792 52.4341 22.8915 52.4341 20.249V9.28857C52.4341 6.42623 50.1054 4.09741 47.2429 4.09741H30.2385C27.3761 4.09741 25.0474 6.42623 25.0474 9.28857V20.249C25.0474 23.1114 27.3761 25.4402 30.2385 25.4402H42.6923L44.1814 26.9293C43.997 26.9156 43.8114 26.9063 43.6236 26.9063C39.5237 26.9063 36.1882 30.2418 36.1882 34.3416V38.7886C36.1882 40.0641 36.7101 41.2196 37.5513 42.0538C34.3692 43.5242 32.1547 46.7442 32.1547 50.4735V54.9063C32.1547 55.5103 32.6444 56 33.2484 56H53.9988C54.6028 56 55.0926 55.5103 55.0926 54.9063V50.4737C55.0926 46.7443 52.8779 43.5243 49.6959 42.0539ZM43.9189 23.5731C43.7137 23.368 43.4356 23.2527 43.1455 23.2527H30.2385C28.5823 23.2527 27.2349 21.9053 27.2349 20.249V9.28857C27.2349 7.6323 28.5823 6.28491 30.2385 6.28491H47.2428C48.8991 6.28491 50.2465 7.6323 50.2465 9.28857V9.34741H43.308C42.704 9.34741 42.2142 9.83709 42.2142 10.4412C42.2142 11.0452 42.704 11.5349 43.308 11.5349H50.2465V20.249C50.2465 21.9053 48.8991 23.2527 47.2428 23.2527H46.7989C46.1949 23.2527 45.7051 23.7424 45.7051 24.3465V25.3594L43.9189 23.5731ZM38.3758 34.3416C38.3758 31.448 40.73 29.0938 43.6237 29.0938C46.5173 29.0938 48.8715 31.448 48.8715 34.3416V38.7886C48.8715 40.1194 47.7888 41.2021 46.458 41.2021H45.8213H41.4262H40.7894V41.2022C39.4585 41.2022 38.3758 40.1195 38.3758 38.7887V34.3416ZM52.9053 53.8125H52.9052H34.3423V50.4737C34.3423 46.5676 37.5202 43.3897 41.4263 43.3897H45.8214C49.7275 43.3897 52.9053 46.5676 52.9053 50.4737V53.8125Z" fill="#C51162"/>
<path d="M23.2926 0H10.571C7.7087 0 5.37988 2.32881 5.37988 5.19116V16.1516C5.37988 18.7941 7.36427 20.9817 9.92113 21.3023V23.9026C9.92113 24.3449 10.1877 24.7438 10.5963 24.9131C10.7316 24.9692 10.8738 24.9965 11.0147 24.9965C11.2994 24.9965 11.579 24.8852 11.7883 24.676L15.1215 21.3428H20.8054C21.4093 21.3428 21.8991 20.8531 21.8991 20.249C21.8991 19.645 21.4093 19.1553 20.8054 19.1553H14.6684C14.3784 19.1553 14.1002 19.2706 13.8951 19.4756L12.1087 21.262V20.249C12.1087 19.645 11.619 19.1553 11.015 19.1553H10.571C8.91477 19.1553 7.56738 17.8079 7.56738 16.1516V5.19116C7.56738 3.53489 8.91488 2.1875 10.571 2.1875H23.2924C23.8964 2.1875 24.3862 1.69783 24.3862 1.09375C24.3862 0.489672 23.8964 0 23.2926 0Z" fill="#C51162"/>
<path d="M28.3495 0.320469C28.145 0.117031 27.8638 0 27.5763 0C27.2874 0 27.0052 0.117031 26.803 0.320469C26.5985 0.523906 26.4814 0.806094 26.4814 1.09375C26.4814 1.38141 26.5985 1.66359 26.803 1.86703C27.0052 2.07047 27.2874 2.1875 27.5763 2.1875C27.8639 2.1875 28.145 2.07047 28.3495 1.86703C28.5529 1.66359 28.67 1.38141 28.67 1.09375C28.67 0.806094 28.5529 0.523906 28.3495 0.320469Z" fill="#C51162"/>
<path d="M39.5144 9.66764C39.3111 9.4642 39.0288 9.34717 38.7412 9.34717C38.4536 9.34717 38.1714 9.4642 37.9679 9.66764C37.7645 9.87107 37.6475 10.1533 37.6475 10.4409C37.6475 10.7286 37.7644 11.0108 37.9679 11.2142C38.1715 11.4176 38.4536 11.5347 38.7412 11.5347C39.0289 11.5347 39.3111 11.4176 39.5144 11.2142C39.7178 11.0108 39.835 10.7286 39.835 10.4409C39.835 10.1533 39.7179 9.87107 39.5144 9.66764Z" fill="#C51162"/>
</g>
<defs>
<clipPath id="clip0">
<rect width="56" height="56" fill="white"/>
</clipPath>
</defs>
</svg>
