<svg width="56" height="56" viewBox="0 0 56 56" fill="none" xmlns="http://www.w3.org/2000/svg">
<path d="M50.0221 44.6289C50.6224 43.7994 50.9775 42.7815 50.9775 41.6817V35.1094C50.9775 34.5053 50.4877 34.0156 49.8837 34.0156H44.9956C42.7359 34.0156 40.8975 35.854 40.8975 38.1137V41.6817C40.8975 42.7808 41.2522 43.798 41.8517 44.6273C41.104 44.7486 40.3846 44.9881 39.7137 45.3388C38.1941 43.0712 35.7044 41.5074 32.8433 41.2436C32.8322 41.2404 32.8208 41.2381 32.8095 41.2354C33.8332 40.0923 34.4572 38.5842 34.4572 36.9327V28C34.4572 27.3959 33.9674 26.9062 33.3634 26.9062H26.7198C23.8652 26.9062 21.5428 29.2286 21.5428 32.0832V36.9325C21.5428 38.5841 22.1668 40.0922 23.1905 41.2352C23.1792 41.238 23.1678 41.2404 23.1567 41.2435C20.2953 41.5073 17.8055 43.0713 16.2859 45.3392C15.6148 44.9887 14.8953 44.7489 14.148 44.6276C14.7476 43.7983 15.1025 42.7809 15.1025 41.6817V35.1094C15.1025 34.5053 14.6127 34.0156 14.0087 34.0156H9.12056C6.86088 34.0156 5.0225 35.854 5.0225 38.1137V41.6817C5.0225 42.7816 5.37764 43.7994 5.97789 44.6289C2.59241 45.1823 0 48.1265 0 51.666V54.9062C0 55.5103 0.489781 56 1.09375 56H54.9062C55.5102 56 56 55.5103 56 54.9062V51.666C56 48.1265 53.4076 45.1823 50.0221 44.6289ZM7.21 38.1137C7.21 37.0602 8.06706 36.2031 9.12056 36.2031H12.915V37.5352C12.915 38.1884 12.3837 38.7197 11.7306 38.7197H7.21V38.1137ZM7.21 40.9071H11.7306C12.1473 40.9071 12.5463 40.8307 12.915 40.6918V41.6817C12.915 43.2545 11.6354 44.5342 10.0625 44.5342C8.48958 44.5342 7.21 43.2545 7.21 41.6817V40.9071ZM10.7676 46.7217L10.0625 47.4269L9.35736 46.7217H10.7676ZM14.7166 50.5024V53.8125H2.1875V51.666C2.1875 49.2128 3.98377 47.1721 6.32986 46.7878L9.28911 49.747C9.4943 49.9521 9.77244 50.0674 10.0625 50.0674C10.3526 50.0674 10.6307 49.9521 10.8359 49.747L13.796 46.7868C14.3188 46.8719 14.8216 47.0404 15.2902 47.287C14.9196 48.2895 14.7166 49.3726 14.7166 50.5024ZM28.0001 41.2023C25.6458 41.2023 23.7304 39.287 23.7304 36.9327V35.487H30.2671C30.992 35.487 31.6745 35.3019 32.2698 34.9766V36.9327C32.2698 39.287 30.3544 41.2023 28.0001 41.2023ZM29.9066 43.3897L28 45.2963L26.0934 43.3897H29.9066ZM23.7302 32.0832H23.7303C23.7303 30.4348 25.0714 29.0938 26.7198 29.0938H32.2697V31.297C32.2697 32.4013 31.3713 33.2997 30.267 33.2997H23.7302V32.0832ZM39.0958 53.8125H36.9688H19.0312H16.9042V51.625H24.0261C24.63 51.625 25.1198 51.1353 25.1198 50.5312C25.1198 49.9272 24.63 49.4375 24.0261 49.4375H16.9842C17.453 46.329 19.9412 43.8751 23.0653 43.4552L27.2266 47.6165C27.4402 47.8301 27.7201 47.9369 28 47.9369C28.2799 47.9369 28.5598 47.8301 28.7734 47.6165L32.9347 43.4552C36.408 43.922 39.0958 46.9033 39.0958 50.5024V53.8125ZM43.085 38.1137C43.085 37.0602 43.9421 36.2031 44.9956 36.2031H48.79V37.5352C48.79 38.1884 48.2587 38.7197 47.6056 38.7197H43.085V38.1137ZM43.085 40.9071H47.6056C48.0223 40.9071 48.4213 40.8307 48.79 40.6918V41.6817C48.79 43.2545 47.5104 44.5342 45.9375 44.5342C44.3646 44.5342 43.085 43.2545 43.085 41.6817V40.9071ZM46.6426 46.7217L45.9375 47.4269L45.2324 46.7217H46.6426ZM41.2833 53.8125V50.5024C41.2833 49.3725 41.0803 48.2894 40.7096 47.2868C41.1779 47.04 41.6806 46.8716 42.2035 46.7866L45.164 49.747C45.3692 49.9521 45.6473 50.0674 45.9374 50.0674C46.2275 50.0674 46.5056 49.9521 46.7108 49.747L49.67 46.7878C52.0161 47.1722 53.8124 49.2128 53.8124 51.666V53.8125H41.2833Z" fill="#C51162"/>
<path d="M33.3903 7.14626C32.9631 6.71915 32.2707 6.71915 31.8434 7.14626L26.4763 12.5134L24.1562 10.1932C23.729 9.76601 23.0366 9.76601 22.6094 10.1931C22.1823 10.6202 22.1823 11.3128 22.6094 11.74L25.703 14.8336C25.9081 15.0386 26.1863 15.1539 26.4763 15.1539C26.7664 15.1539 27.0446 15.0386 27.2497 14.8336L33.3903 8.69304C33.8174 8.26593 33.8174 7.57337 33.3903 7.14626Z" fill="#C51162"/>
<path d="M32.4717 0.948478C31.9201 0.702493 31.2734 0.950228 31.0273 1.50192C30.7812 2.0536 31.029 2.70034 31.5807 2.94632C34.7525 4.36087 36.8019 7.5182 36.8019 10.99C36.8019 15.8436 32.8532 19.7924 27.9995 19.7924C23.1459 19.7924 19.1972 15.8436 19.1972 10.99C19.1972 7.53614 21.2319 4.38537 24.3808 2.96317C24.9313 2.71456 25.176 2.06662 24.9273 1.51613C24.6787 0.96554 24.0304 0.720868 23.4804 0.969478C19.5497 2.74485 17.0098 6.67809 17.0098 10.9899C17.0097 17.0498 21.9397 21.9799 27.9995 21.9799C34.0594 21.9799 38.9894 17.0498 38.9894 10.99C38.9894 6.65578 36.431 2.71423 32.4717 0.948478Z" fill="#C51162"/>
<path d="M28.0392 0H28C27.396 0 26.9062 0.489672 26.9062 1.09375C26.9062 1.69783 27.396 2.1875 28 2.1875H28.0289C28.0306 2.1875 28.0323 2.1875 28.0341 2.1875C28.6358 2.1875 29.1249 1.70122 29.1278 1.09889C29.1306 0.494813 28.6432 0.00284375 28.0392 0Z" fill="#C51162"/>
<path d="M28.7732 49.758C28.5698 49.5545 28.2877 49.4375 28 49.4375C27.7123 49.4375 27.4302 49.5545 27.2267 49.758C27.0233 49.9614 26.9062 50.2436 26.9062 50.5312C26.9062 50.8189 27.0232 51.1011 27.2267 51.3045C27.4303 51.508 27.7123 51.625 28 51.625C28.2877 51.625 28.5698 51.508 28.7732 51.3045C28.9766 51.1011 29.0938 50.8189 29.0938 50.5312C29.0938 50.2436 28.9767 49.9614 28.7732 49.758Z" fill="#C51162"/>
</svg>
