<svg width="40" height="40" viewBox="0 0 40 40" fill="none" xmlns="http://www.w3.org/2000/svg">
<path fill-rule="evenodd" clip-rule="evenodd" d="M39.4142 3H27V16H25C23.3431 16 22 17.3431 22 19V20.1707C21.6872 20.0602 21.3506 20 21 20H15C13.3431 20 12 21.3431 12 23V24.1707C11.6872 24.0602 11.3506 24 11 24H5C3.34315 24 2 25.3431 2 27V38H34V19C34 17.3431 32.6569 16 31 16H29V11H39.4142L35.4142 7L39.4142 3ZM25 18C24.4477 18 24 18.4477 24 19V36H32V19C32 18.4477 31.5523 18 31 18H25ZM34.5858 9H29V5H34.5858L32.5858 7L34.5858 9ZM22 23V36H14V23C14 22.4477 14.4477 22 15 22H21C21.5523 22 22 22.4477 22 23ZM12 36V27C12 26.4477 11.5523 26 11 26H5C4.44772 26 4 26.4477 4 27V36H12Z" fill="#C51162"/>
</svg>
