<svg width="56" height="56" viewBox="0 0 56 56" fill="none" xmlns="http://www.w3.org/2000/svg">
<path d="M39.6963 0H7.54004C5.73076 0 4.25879 1.47197 4.25879 3.28125V14.4375C4.25879 15.0416 4.74857 15.5312 5.35254 15.5312C5.95651 15.5312 6.44629 15.0416 6.44629 14.4375V3.28125C6.44629 2.67816 6.93694 2.1875 7.54004 2.1875H39.6963C40.2994 2.1875 40.79 2.67816 40.79 3.28125V43.9688C40.79 44.5718 40.2994 45.0625 39.6963 45.0625H7.54004C6.93694 45.0625 6.44629 44.5718 6.44629 43.9688V23.6614C6.44629 23.0573 5.95651 22.5677 5.35254 22.5677C4.74857 22.5677 4.25879 23.0573 4.25879 23.6614V43.9688C4.25879 45.778 5.73076 47.25 7.54004 47.25H39.6963C41.5056 47.25 42.9775 45.778 42.9775 43.9688V3.28125C42.9775 1.47197 41.5056 0 39.6963 0Z" fill="#C51162"/>
<path d="M6.12571 18.561C5.92238 18.3575 5.6402 18.2416 5.35254 18.2416C5.06488 18.2416 4.7827 18.3575 4.57926 18.561C4.37571 18.7655 4.25879 19.0477 4.25879 19.3342C4.25879 19.623 4.37582 19.9041 4.57926 20.1086C4.7827 20.312 5.06488 20.4291 5.35254 20.4291C5.64009 20.4291 5.92227 20.312 6.12571 20.1086C6.32926 19.9052 6.44629 19.623 6.44629 19.3342C6.44629 19.0466 6.32915 18.7655 6.12571 18.561Z" fill="#C51162"/>
<path d="M10.5072 49.7646C10.3037 49.5611 10.0227 49.4441 9.73389 49.4441C9.44623 49.4441 9.16404 49.5611 8.96071 49.7646C8.75717 49.968 8.64014 50.2502 8.64014 50.5378C8.64014 50.8266 8.75728 51.1077 8.96071 51.3111C9.16404 51.5157 9.44623 51.6316 9.73389 51.6316C10.0227 51.6316 10.3037 51.5157 10.5072 51.3111C10.7107 51.1077 10.8276 50.8266 10.8276 50.5378C10.8276 50.2502 10.7106 49.968 10.5072 49.7646Z" fill="#C51162"/>
<path d="M46.2656 4.38184C45.6617 4.38184 45.1719 4.87151 45.1719 5.47559V48.3506C45.1719 48.9537 44.6812 49.4443 44.0781 49.4443H14.1094C13.5054 49.4443 13.0156 49.934 13.0156 50.5381C13.0156 51.1422 13.5054 51.6318 14.1094 51.6318H44.0781C45.8874 51.6318 47.3594 50.1599 47.3594 48.3506V5.47559C47.3594 4.87151 46.8696 4.38184 46.2656 4.38184Z" fill="#C51162"/>
<path d="M50.6475 8.75C50.0435 8.75 49.5537 9.23967 49.5537 9.84375V52.7188C49.5537 53.3218 49.0631 53.8125 48.46 53.8125H14.1162C13.5122 53.8125 13.0225 54.3022 13.0225 54.9062C13.0225 55.5103 13.5122 56 14.1162 56H48.46C50.2692 56 51.7412 54.528 51.7412 52.7188V9.84375C51.7412 9.23967 51.2514 8.75 50.6475 8.75Z" fill="#C51162"/>
<path d="M21.9775 8.09375H11.4775C10.8736 8.09375 10.3838 8.58342 10.3838 9.1875V19.6875C10.3838 20.2916 10.8736 20.7812 11.4775 20.7812H21.9775C22.5815 20.7812 23.0713 20.2916 23.0713 19.6875V9.1875C23.0713 8.58342 22.5815 8.09375 21.9775 8.09375ZM20.8838 18.5938H12.5713V10.2812H20.8838V18.5938Z" fill="#C51162"/>
<path d="M18.4582 25.747C18.031 25.32 17.3386 25.3199 16.9113 25.747L14.0038 28.6546L12.6519 27.3026C12.2248 26.8755 11.5324 26.8756 11.105 27.3026C10.6779 27.7297 10.6779 28.4223 11.105 28.8494L13.2304 30.9747C13.4356 31.1798 13.7137 31.2951 14.0038 31.2951C14.2939 31.2951 14.572 31.1798 14.7773 30.9747L18.4582 27.2938C18.8853 26.8667 18.8853 26.1742 18.4582 25.747Z" fill="#C51162"/>
<path d="M36.3786 27.2344H23.6182C23.0142 27.2344 22.5244 27.724 22.5244 28.3281C22.5244 28.9322 23.0142 29.4219 23.6182 29.4219H36.3786C36.9826 29.4219 37.4724 28.9322 37.4724 28.3281C37.4724 27.724 36.9826 27.2344 36.3786 27.2344Z" fill="#C51162"/>
<path d="M35.7588 8.09375H28.1025C27.4986 8.09375 27.0088 8.58342 27.0088 9.1875C27.0088 9.79158 27.4986 10.2812 28.1025 10.2812H35.7588C36.3628 10.2812 36.8525 9.79158 36.8525 9.1875C36.8525 8.58342 36.3628 8.09375 35.7588 8.09375Z" fill="#C51162"/>
<path d="M35.7588 13.3438H28.1025C27.4986 13.3438 27.0088 13.8334 27.0088 14.4375C27.0088 15.0416 27.4986 15.5312 28.1025 15.5312H35.7588C36.3628 15.5312 36.8525 15.0416 36.8525 14.4375C36.8525 13.8334 36.3628 13.3438 35.7588 13.3438Z" fill="#C51162"/>
<path d="M35.7588 18.5938H28.1025C27.4986 18.5938 27.0088 19.0834 27.0088 19.6875C27.0088 20.2916 27.4986 20.7812 28.1025 20.7812H35.7588C36.3628 20.7812 36.8525 20.2916 36.8525 19.6875C36.8525 19.0834 36.3628 18.5938 35.7588 18.5938Z" fill="#C51162"/>
<path d="M18.4582 34.0998C18.031 33.6728 17.3386 33.6727 16.9113 34.0998L14.0038 37.0073L12.6519 35.6554C12.2248 35.2283 11.5324 35.2284 11.105 35.6554C10.6779 36.0825 10.6779 36.775 11.105 37.2021L13.2304 39.3275C13.4356 39.5326 13.7137 39.6479 14.0038 39.6479C14.2939 39.6479 14.572 39.5326 14.7773 39.3275L18.4582 35.6466C18.8853 35.2195 18.8853 34.5269 18.4582 34.0998Z" fill="#C51162"/>
<path d="M36.3786 35.5469H23.6182C23.0142 35.5469 22.5244 36.0365 22.5244 36.6406C22.5244 37.2447 23.0142 37.7344 23.6182 37.7344H36.3786C36.9826 37.7344 37.4724 37.2447 37.4724 36.6406C37.4724 36.0365 36.9826 35.5469 36.3786 35.5469Z" fill="#C51162"/>
</svg>
