<svg width="40" height="40" viewBox="0 0 40 40" fill="none" xmlns="http://www.w3.org/2000/svg">
<path d="M27 4C23.6863 4 21 6.68629 21 10C21 13.3137 23.6863 16 27 16C28.6352 16 30.1159 15.3472 31.1991 14.2858C31.5935 13.8992 32.2267 13.9056 32.6132 14.3001C32.9998 14.6946 32.9933 15.3277 32.5989 15.7142C31.157 17.1272 29.1794 18 27 18C22.5817 18 19 14.4183 19 10C19 5.58172 22.5817 2 27 2C31.4183 2 35 5.58172 35 10C35 10.5523 34.5523 11 34 11C33.4477 11 33 10.5523 33 10C33 6.68629 30.3137 4 27 4Z" fill="#C51162"/>
<path fill-rule="evenodd" clip-rule="evenodd" d="M21.3852 24.0952C22.3869 23.023 23 21.5831 23 20V19C23 18.4477 22.5523 18 22 18C21.4477 18 21 18.4477 21 19V20C21 22.2091 19.2091 24 17 24C14.7909 24 13 22.2091 13 20V16.7692L14.5836 16.7692C15.6703 16.7692 16.7421 16.5162 17.7141 16.0302L18.4472 15.6637C18.9412 15.4167 19.1414 14.816 18.8944 14.322C18.6474 13.828 18.0468 13.6278 17.5528 13.8748L16.8197 14.2414C16.1254 14.5885 15.3598 14.7692 14.5836 14.7692L13 14.7692V13C13 11.8954 13.8954 11 15 11H17C17.5523 11 18 10.5523 18 10C18 9.44772 17.5523 9 17 9H15C12.7909 9 11 10.7909 11 13L11 20C11 21.5831 11.6131 23.023 12.6148 24.0952C7.74754 24.7696 4 28.9472 4 34V35C4 36.6569 5.34315 38 7 38H27C28.6569 38 30 36.6569 30 35V34C30 28.9472 26.2525 24.7696 21.3852 24.0952ZM14.1707 26C14.5825 27.1652 15.6938 28 17 28C18.3062 28 19.4175 27.1652 19.8293 26H14.1707ZM6 34C6 30.219 8.62306 27.0506 12.1487 26.2153C12.6916 28.3894 14.6577 30 17 30C19.3423 30 21.3084 28.3894 21.8513 26.2153C25.3769 27.0506 28 30.219 28 34V35C28 35.5523 27.5523 36 27 36H7C6.44772 36 6 35.5523 6 35V34Z" fill="#C51162"/>
<path d="M30.7071 8.70711C31.0976 8.31658 31.0976 7.68342 30.7071 7.29289C30.3166 6.90237 29.6834 6.90237 29.2929 7.29289L26 10.5858L24.7071 9.29289C24.3166 8.90237 23.6834 8.90237 23.2929 9.29289C22.9024 9.68342 22.9024 10.3166 23.2929 10.7071L25.2929 12.7071C25.6834 13.0976 26.3166 13.0976 26.7071 12.7071L30.7071 8.70711Z" fill="#C51162"/>
</svg>
