<svg width="40" height="40" viewBox="0 0 40 40" fill="none" xmlns="http://www.w3.org/2000/svg">
<path fill-rule="evenodd" clip-rule="evenodd" d="M6 4C6 2.34315 7.34315 1 9 1H10C11.6569 1 13 2.34315 13 4V5H27V4C27 2.34315 28.3431 1 30 1H31C32.6569 1 34 2.34315 34 4V5H36C37.6569 5 39 6.34315 39 8V22C39 22.5523 38.5523 23 38 23C37.4477 23 37 22.5523 37 22V15H30C29.4477 15 29 14.5523 29 14C29 13.4477 29.4477 13 30 13H37V8C37 7.44772 36.5523 7 36 7H34C34 8.65685 32.6569 10 31 10H30C28.3431 10 27 8.65685 27 7H13C13 8.65685 11.6569 10 10 10H9C7.34315 10 6 8.65685 6 7H4C3.44772 7 3 7.44772 3 8V13H24C24.5523 13 25 13.4477 25 14C25 14.5523 24.5523 15 24 15H3V34C3 34.5523 3.44772 35 4 35H22C22.5523 35 23 35.4477 23 36C23 36.5523 22.5523 37 22 37H4C2.34315 37 1 35.6569 1 34V8C1 6.34315 2.34315 5 4 5H6V4ZM32 4C32 3.44772 31.5523 3 31 3H30C29.4477 3 29 3.44772 29 4V7C29 7.55228 29.4477 8 30 8H31C31.5523 8 32 7.55228 32 7V4ZM10 3C10.5523 3 11 3.44772 11 4V7C11 7.55228 10.5523 8 10 8H9C8.44772 8 8 7.55228 8 7V4C8 3.44772 8.44772 3 9 3H10Z" fill="#C51162"/>
<path fill-rule="evenodd" clip-rule="evenodd" d="M5 21C5 19.3431 6.34315 18 8 18C9.65685 18 11 19.3431 11 21C11 22.6569 9.65685 24 8 24C6.34315 24 5 22.6569 5 21ZM8 20C7.44772 20 7 20.4477 7 21C7 21.5523 7.44772 22 8 22C8.55228 22 9 21.5523 9 21C9 20.4477 8.55228 20 8 20Z" fill="#C51162"/>
<path fill-rule="evenodd" clip-rule="evenodd" d="M16 18C14.3431 18 13 19.3431 13 21C13 22.6569 14.3431 24 16 24C17.6569 24 19 22.6569 19 21C19 19.3431 17.6569 18 16 18ZM15 21C15 20.4477 15.4477 20 16 20C16.5523 20 17 20.4477 17 21C17 21.5523 16.5523 22 16 22C15.4477 22 15 21.5523 15 21Z" fill="#C51162"/>
<path fill-rule="evenodd" clip-rule="evenodd" d="M21 21C21 19.3431 22.3431 18 24 18C25.6569 18 27 19.3431 27 21C27 22.6569 25.6569 24 24 24C22.3431 24 21 22.6569 21 21ZM24 20C23.4477 20 23 20.4477 23 21C23 21.5523 23.4477 22 24 22C24.5523 22 25 21.5523 25 21C25 20.4477 24.5523 20 24 20Z" fill="#C51162"/>
<path d="M31 21C31 20.4477 31.4477 20 32 20C32.5523 20 33 20.4477 33 21C33 21.5523 33.4477 22 34 22C34.5523 22 35 21.5523 35 21C35 19.3431 33.6569 18 32 18C30.3431 18 29 19.3431 29 21C29 21.5523 29.4477 22 30 22C30.5523 22 31 21.5523 31 21Z" fill="#C51162"/>
<path fill-rule="evenodd" clip-rule="evenodd" d="M5 29C5 27.3431 6.34315 26 8 26C9.65685 26 11 27.3431 11 29C11 30.6569 9.65685 32 8 32C6.34315 32 5 30.6569 5 29ZM8 28C7.44772 28 7 28.4477 7 29C7 29.5523 7.44772 30 8 30C8.55228 30 9 29.5523 9 29C9 28.4477 8.55228 28 8 28Z" fill="#C51162"/>
<path fill-rule="evenodd" clip-rule="evenodd" d="M16 26C14.3431 26 13 27.3431 13 29C13 30.6569 14.3431 32 16 32C17.6569 32 19 30.6569 19 29C19 27.3431 17.6569 26 16 26ZM15 29C15 28.4477 15.4477 28 16 28C16.5523 28 17 28.4477 17 29C17 29.5523 16.5523 30 16 30C15.4477 30 15 29.5523 15 29Z" fill="#C51162"/>
<path d="M33 27C33 26.4477 32.5523 26 32 26C31.4477 26 31 26.4477 31 27V31C31 31.2652 31.1054 31.5196 31.2929 31.7071L33.2929 33.7071C33.6834 34.0976 34.3166 34.0976 34.7071 33.7071C35.0976 33.3166 35.0976 32.6834 34.7071 32.2929L33 30.5858V27Z" fill="#C51162"/>
<path fill-rule="evenodd" clip-rule="evenodd" d="M24 31C24 26.5817 27.5817 23 32 23C36.4183 23 40 26.5817 40 31C40 35.4183 36.4183 39 32 39C27.5817 39 24 35.4183 24 31ZM32 25C28.6863 25 26 27.6863 26 31C26 34.3137 28.6863 37 32 37C35.3137 37 38 34.3137 38 31C38 27.6863 35.3137 25 32 25Z" fill="#C51162"/>
</svg>
