<svg width="40" height="40" viewBox="0 0 40 40" fill="none" xmlns="http://www.w3.org/2000/svg">
<path d="M6 5C6 3.34315 7.34315 2 9 2H28C29.6569 2 31 3.34315 31 5V31C31 32.6569 29.6569 34 28 34H9C7.34314 34 6 32.6569 6 31V27C6 26.4477 6.44772 26 7 26C7.55228 26 8 26.4477 8 27V31C8 31.5523 8.44772 32 9 32H28C28.5523 32 29 31.5523 29 31V5C29 4.44772 28.5523 4 28 4H9C8.44772 4 8 4.44772 8 5V22C8 22.5523 7.55228 23 7 23C6.44772 23 6 22.5523 6 22V5Z" fill="#C51162"/>
<path d="M34 6C34.5523 6 35 6.44772 35 7V35C35 36.6569 33.6569 38 32 38H12C11.4477 38 11 37.5523 11 37C11 36.4477 11.4477 36 12 36H32C32.5523 36 33 35.5523 33 35V7C33 6.44772 33.4477 6 34 6Z" fill="#C51162"/>
<path fill-rule="evenodd" clip-rule="evenodd" d="M13 6C11.3431 6 10 7.34315 10 9V11C10 12.6569 11.3431 14 13 14H15C16.6569 14 18 12.6569 18 11V9C18 7.34315 16.6569 6 15 6H13ZM12 9C12 8.44772 12.4477 8 13 8H15C15.5523 8 16 8.44772 16 9V11C16 11.5523 15.5523 12 15 12H13C12.4477 12 12 11.5523 12 11V9Z" fill="#C51162"/>
<path d="M20 8C20 7.44772 20.4477 7 21 7H26C26.5523 7 27 7.44772 27 8C27 8.55228 26.5523 9 26 9H21C20.4477 9 20 8.55228 20 8Z" fill="#C51162"/>
<path d="M21 11C20.4477 11 20 11.4477 20 12C20 12.5523 20.4477 13 21 13H26C26.5523 13 27 12.5523 27 12C27 11.4477 26.5523 11 26 11H21Z" fill="#C51162"/>
<path d="M10 17C10 16.4477 10.4477 16 11 16H26C26.5523 16 27 16.4477 27 17C27 17.5523 26.5523 18 26 18H11C10.4477 18 10 17.5523 10 17Z" fill="#C51162"/>
<path d="M11 20C10.4477 20 10 20.4477 10 21C10 21.5523 10.4477 22 11 22H26C26.5523 22 27 21.5523 27 21C27 20.4477 26.5523 20 26 20H11Z" fill="#C51162"/>
<path d="M10 28C10 27.4477 10.4477 27 11 27H19C19.5523 27 20 27.4477 20 28C20 28.5523 19.5523 29 19 29H11C10.4477 29 10 28.5523 10 28Z" fill="#C51162"/>
<path d="M26.4952 25.2929C26.1047 24.9024 25.4715 24.9024 25.081 25.2929L23.7881 26.5858L23.4952 26.2929C23.1047 25.9024 22.4715 25.9024 22.081 26.2929C21.6905 26.6834 21.6905 27.3166 22.081 27.7071L23.081 28.7071C23.4715 29.0976 24.1047 29.0976 24.4952 28.7071L26.4952 26.7071C26.8857 26.3166 26.8857 25.6834 26.4952 25.2929Z" fill="#C51162"/>
</svg>
