<svg width="40" height="40" viewBox="0 0 40 40" fill="none" xmlns="http://www.w3.org/2000/svg">
<path d="M2 4C2 2.34315 3.34315 1 5 1H16C17.6569 1 19 2.34315 19 4V6.5C19 7.05228 18.5523 7.5 18 7.5C17.4477 7.5 17 7.05228 17 6.5V4C17 3.44772 16.5523 3 16 3H5C4.44772 3 4 3.44772 4 4V11.6972C4 11.8644 4.13556 12 4.30278 12C5.07272 12 5.79171 12.3848 6.2188 13.0254L7 14.1972L7.57422 13.3359C8.13061 12.5013 9.06731 12 10.0704 12H16C16.5523 12 17 11.5523 17 11V10.25C17 9.69772 17.4477 9.25 18 9.25C18.5523 9.25 19 9.69772 19 10.25V11C19 12.6569 17.6569 14 16 14H10.0704C9.73601 14 9.42378 14.1671 9.23832 14.4453L8.6641 15.3066C7.87246 16.4941 6.12754 16.4941 5.3359 15.3066L4.5547 14.1348C4.49855 14.0506 4.40401 14 4.30278 14C3.03099 14 2 12.969 2 11.6972V4Z" fill="#C51162"/>
<path fill-rule="evenodd" clip-rule="evenodd" d="M16.7428 29C17.5282 28.0491 18 26.8296 18 25.5V17.6C18 16.6839 17.2037 15.9712 16.2932 16.0724L10.5583 16.7096C8.53254 16.9347 7 18.6469 7 20.6851L7 25.5C7 26.9182 7.5368 28.2111 8.41831 29.1865C8.39246 29.205 8.36752 29.2247 8.34359 29.2456C4.70039 30.1492 2 33.441 2 37.3636C2 38.8197 3.18034 40 4.63636 40H15C15.5523 40 16 39.5523 16 39C16 38.4477 15.5523 38 15 38H4.63636C4.28491 38 4 37.7151 4 37.3636C4 34.6489 5.69997 32.3311 8.09348 31.4169C8.51691 33.4625 10.3289 35 12.5 35C14.8163 35 16.7238 33.25 16.9725 31H18C18.5523 31 19 30.5523 19 30C19 29.4477 18.5523 29 18 29H16.7428ZM12.5 29C14.433 29 16 27.433 16 25.5V20.3285L15.5615 20.8464C14.6114 21.9684 13.2158 22.6154 11.7456 22.6154H9L9 25.5C9 27.433 10.567 29 12.5 29ZM10.3636 31C10.259 31 10.155 31.0025 10.0516 31.0075C10.2861 32.1449 11.2932 33 12.5 33C13.7095 33 14.7184 32.1411 14.95 31H10.3636ZM11.7456 20.6154H9.0012C9.03522 19.6272 9.78946 18.8073 10.7791 18.6974L15.174 18.209L14.0351 19.554C13.4651 20.2272 12.6277 20.6154 11.7456 20.6154Z" fill="#C51162"/>
<path fill-rule="evenodd" clip-rule="evenodd" d="M31.551 29.2202C32.4507 28.241 33 26.9346 33 25.5V20.6851C33 18.6469 31.4675 16.9347 29.4417 16.7096L23.7068 16.0724C22.7963 15.9712 22 16.6839 22 17.6V25.5C22 26.9346 22.5493 28.241 23.449 29.2202C19.7526 30.0859 17 33.4033 17 37.3636C17 38.8197 18.1803 40 19.6364 40H35.3636C36.8197 40 38 38.8197 38 37.3636C38 33.4033 35.2474 30.0859 31.551 29.2202ZM27.5 29C25.567 29 24 27.433 24 25.5V18.1173L29.2209 18.6974C30.2337 18.8099 31 19.666 31 20.6851V25.5C31 27.433 29.433 29 27.5 29ZM25.3636 31C21.8491 31 19 33.8491 19 37.3636C19 37.7151 19.2849 38 19.6364 38H35.3636C35.7151 38 36 37.7151 36 37.3636C36 33.8491 33.1509 31 29.6364 31H25.3636Z" fill="#C51162"/>
<path fill-rule="evenodd" clip-rule="evenodd" d="M35 3C36.6569 3 38 4.34315 38 6V11.597C38 12.7269 37.084 13.6429 35.9541 13.6429C35.9389 13.6429 35.9247 13.6504 35.9162 13.663L35.4548 14.3427C34.6613 15.5117 32.9387 15.5117 32.1452 14.3427L31.9677 14.0812C31.7816 13.807 31.4717 13.6429 31.1403 13.6429H27C25.3431 13.6429 24 12.2997 24 10.6429V6C24 4.34315 25.3431 3 27 3H35ZM36 6C36 5.44772 35.5523 5 35 5H27C26.4477 5 26 5.44772 26 6V10.6429C26 11.1951 26.4477 11.6429 27 11.6429H31.1403C32.1345 11.6429 33.0642 12.1354 33.6225 12.958L33.8 13.2194L34.2614 12.5397C34.6422 11.9787 35.2761 11.6429 35.9541 11.6429C35.9795 11.6429 36 11.6223 36 11.597V6Z" fill="#C51162"/>
</svg>
