<svg width="168" height="83" viewBox="0 0 168 83" fill="none" xmlns="http://www.w3.org/2000/svg">
<path d="M0 27.826C0 23.688 2.82166 20.0832 6.8386 19.0894L73.193 2.67361C80.2907 0.91767 87.7093 0.917672 94.807 2.67361L161.161 19.0894C165.178 20.0832 168 23.688 168 27.826V55.299C168 59.437 165.178 63.0418 161.161 64.0356L94.807 80.4514C87.7093 82.2073 80.2907 82.2073 73.193 80.4514L6.83859 64.0356C2.82166 63.0418 0 59.437 0 55.299V27.826Z" fill="#F50057"/>
<mask id="mask0" mask-type="alpha" maskUnits="userSpaceOnUse" x="0" y="1" width="168" height="81">
<path d="M0 27.7973C0 23.6581 2.82323 20.0526 6.84166 19.0599L73.2083 2.6658C80.2962 0.914917 87.7038 0.914916 94.7917 2.6658L161.158 19.0599C165.177 20.0526 168 23.6581 168 27.7973V55.2027C168 59.3419 165.177 62.9474 161.158 63.9401L94.7917 80.3342C87.7038 82.0851 80.2962 82.0851 73.2083 80.3342L6.84166 63.9401C2.82323 62.9474 0 59.3419 0 55.2027V27.7973Z" fill="#F50057"/>
</mask>
<g mask="url(#mask0)">
<circle cx="84" cy="427.5" r="378.75" fill="#C51162"/>
</g>
<path d="M69.9375 21.25H73.3438V38.89H80.1563V42.25H69.9375V21.25Z" fill="white"/>
<path fill-rule="evenodd" clip-rule="evenodd" d="M55.9067 21.25C54.2499 21.25 52.9067 22.5931 52.9067 24.25V39.25C52.9067 40.9068 54.2499 42.25 55.9067 42.25H60.1255C61.7823 42.25 63.1255 40.9068 63.1255 39.25V24.25C63.1255 22.5931 61.7823 21.25 60.1255 21.25H55.9067ZM57.0627 24.61C56.6485 24.61 56.3127 24.9458 56.3127 25.36V38.14C56.3127 38.5542 56.6485 38.89 57.0627 38.89H58.969C59.3832 38.89 59.719 38.5542 59.719 38.14V25.36C59.719 24.9458 59.3832 24.61 58.969 24.61H57.0627Z" fill="white"/>
<path fill-rule="evenodd" clip-rule="evenodd" d="M43.0938 21.25H35.875V42.25H43.0938C44.7506 42.25 46.0938 40.9068 46.0938 39.25V24.25C46.0938 22.5931 44.7506 21.25 43.0938 21.25ZM41.9373 24.61H39.281V38.89H41.9373C42.3515 38.89 42.6873 38.5542 42.6873 38.14V25.36C42.6873 24.9458 42.3515 24.61 41.9373 24.61Z" fill="white"/>
<path fill-rule="evenodd" clip-rule="evenodd" d="M110.538 31.736L115.07 21.25H111.374L108.684 27.4581L105.993 21.25H102.297L106.83 31.736L102.297 42.1945L105.993 42.25L108.684 36.0251L111.374 42.25L115.07 42.1945L110.538 31.736Z" fill="white"/>
<path fill-rule="evenodd" clip-rule="evenodd" d="M89.1172 21.25C87.4603 21.25 86.1172 22.5931 86.1172 24.25V39.25C86.1172 40.9068 87.4603 42.25 89.1172 42.25H93.3359C94.9928 42.25 96.3359 40.9068 96.3359 39.25V24.25C96.3359 22.5931 94.9928 21.25 93.3359 21.25H89.1172ZM90.2734 24.61C89.8592 24.61 89.5234 24.9458 89.5234 25.36V38.14C89.5234 38.5542 89.8592 38.89 90.2734 38.89H92.1797C92.5939 38.89 92.9297 38.5542 92.9297 38.14V25.36C92.9297 24.9458 92.5939 24.61 92.1797 24.61H90.2734Z" fill="white"/>
<path fill-rule="evenodd" clip-rule="evenodd" d="M124.031 21.25C122.374 21.25 121.031 22.5931 121.031 24.25V39.25C121.031 40.9068 122.374 42.25 124.031 42.25H128.25C129.907 42.25 131.25 40.9068 131.25 39.25V24.25C131.25 22.5931 129.907 21.25 128.25 21.25H124.031ZM125.187 24.61C124.773 24.61 124.437 24.9458 124.437 25.36V38.14C124.437 38.5542 124.773 38.89 125.187 38.89H127.094C127.508 38.89 127.844 38.5542 127.844 38.14V25.36C127.844 24.9458 127.508 24.61 127.094 24.61H125.187Z" fill="white"/>
<path d="M83.4463 69.5H80.8096V64.0156H75.668V69.5H73.0312V56.7031H75.668V61.8887H80.8096V56.7031H83.4463V69.5Z" fill="white"/>
<path d="M90.4951 64.8154H88.3945V69.5H85.7578V56.7031H90.5127C92.0244 56.7031 93.1904 57.04 94.0107 57.7139C94.8311 58.3877 95.2412 59.3398 95.2412 60.5703C95.2412 61.4434 95.0508 62.1728 94.6699 62.7588C94.2949 63.3389 93.7236 63.8018 92.9561 64.1475L95.7246 69.3769V69.5H92.8945L90.4951 64.8154ZM88.3945 62.6797H90.5215C91.1836 62.6797 91.6963 62.5127 92.0596 62.1787C92.4229 61.8389 92.6045 61.373 92.6045 60.7812C92.6045 60.1777 92.4316 59.7031 92.0859 59.3574C91.7461 59.0117 91.2217 58.8389 90.5127 58.8389H88.3945V62.6797Z" fill="white"/>
</svg>
