<svg width="224" height="111" viewBox="0 0 224 111" fill="none" xmlns="http://www.w3.org/2000/svg">
<path d="M0 37.1014C0 31.584 3.76222 26.7776 9.11813 25.4525L97.5907 3.56481C107.054 1.22356 116.946 1.22356 126.409 3.56481L214.882 25.4525C220.238 26.7776 224 31.584 224 37.1014V73.732C224 79.2494 220.238 84.0558 214.882 85.3808L126.409 107.269C116.946 109.61 107.054 109.61 97.5907 107.269L9.11815 85.3808C3.76223 84.0558 0 79.2494 0 73.732V37.1014Z" fill="#F50057"/>
<mask id="mask0" mask-type="alpha" maskUnits="userSpaceOnUse" x="0" y="1" width="224" height="109">
<path d="M0 37.1014C0 31.584 3.76222 26.7776 9.11813 25.4525L97.5907 3.56481C107.054 1.22356 116.946 1.22356 126.409 3.56481L214.882 25.4525C220.238 26.7776 224 31.584 224 37.1014V73.732C224 79.2494 220.238 84.0558 214.882 85.3808L126.409 107.269C116.946 109.61 107.054 109.61 97.5907 107.269L9.11815 85.3808C3.76223 84.0558 0 79.2494 0 73.732V37.1014Z" fill="#F50057"/>
</mask>
<g mask="url(#mask0)">
<circle cx="112" cy="570" r="505" fill="#C51162"/>
</g>
<path d="M93.25 28.3333H97.7917V51.8533H106.875V56.3333H93.25V28.3333Z" fill="white"/>
<path fill-rule="evenodd" clip-rule="evenodd" d="M74.542 28.3333C72.3329 28.3333 70.542 30.1242 70.542 32.3333V52.3333C70.542 54.5425 72.3329 56.3333 74.542 56.3333H80.167C82.3761 56.3333 84.167 54.5425 84.167 52.3333V32.3333C84.167 30.1242 82.3761 28.3333 80.167 28.3333H74.542ZM76.0835 32.8133C75.5313 32.8133 75.0835 33.261 75.0835 33.8133V50.8533C75.0835 51.4056 75.5312 51.8533 76.0835 51.8533H78.6252C79.1775 51.8533 79.6252 51.4056 79.6252 50.8533V33.8133C79.6252 33.261 79.1775 32.8133 78.6252 32.8133H76.0835Z" fill="white"/>
<path fill-rule="evenodd" clip-rule="evenodd" d="M57.4585 28.3333H47.8335V56.3333H57.4585C59.6676 56.3333 61.4585 54.5425 61.4585 52.3333V32.3333C61.4585 30.1242 59.6676 28.3333 57.4585 28.3333ZM55.9169 32.8133H52.3752V51.8533H55.9169C56.4692 51.8533 56.9169 51.4056 56.9169 50.8533V33.8133C56.9169 33.261 56.4692 32.8133 55.9169 32.8133Z" fill="white"/>
<path fill-rule="evenodd" clip-rule="evenodd" d="M147.384 42.316L153.428 28.3333H148.5L144.912 36.6122L141.324 28.3333H136.396L142.44 42.316L136.397 56.2593L141.325 56.3333L144.912 48.0349L148.499 56.3333L153.427 56.2594L147.384 42.316Z" fill="white"/>
<path fill-rule="evenodd" clip-rule="evenodd" d="M118.823 28.3333C116.614 28.3333 114.823 30.1242 114.823 32.3333V52.3333C114.823 54.5425 116.614 56.3333 118.823 56.3333H124.448C126.657 56.3333 128.448 54.5425 128.448 52.3333V32.3333C128.448 30.1242 126.657 28.3333 124.448 28.3333H118.823ZM120.365 32.8133C119.813 32.8133 119.365 33.261 119.365 33.8133V50.8533C119.365 51.4056 119.813 51.8533 120.365 51.8533H122.907C123.459 51.8533 123.907 51.4056 123.907 50.8533V33.8133C123.907 33.261 123.459 32.8133 122.907 32.8133H120.365Z" fill="white"/>
<path fill-rule="evenodd" clip-rule="evenodd" d="M165.375 28.3333C163.166 28.3333 161.375 30.1242 161.375 32.3333V52.3333C161.375 54.5425 163.166 56.3333 165.375 56.3333H171C173.209 56.3333 175 54.5425 175 52.3333V32.3333C175 30.1242 173.209 28.3333 171 28.3333H165.375ZM166.917 32.8133C166.364 32.8133 165.917 33.261 165.917 33.8133V50.8533C165.917 51.4056 166.364 51.8533 166.917 51.8533H169.458C170.011 51.8533 170.458 51.4056 170.458 50.8533V33.8133C170.458 33.261 170.011 32.8133 169.458 32.8133H166.917Z" fill="white"/>
<path d="M111.262 92.6667H107.746V85.3542H100.891V92.6667H97.375V75.6042H100.891V82.5182H107.746V75.6042H111.262V92.6667Z" fill="white"/>
<path d="M120.66 86.4206H117.859V92.6667H114.344V75.6042H120.684C122.699 75.6042 124.254 76.0534 125.348 76.9518C126.441 77.8503 126.988 79.1198 126.988 80.7604C126.988 81.9245 126.734 82.8971 126.227 83.6784C125.727 84.4518 124.965 85.069 123.941 85.5299L127.633 92.5026V92.6667H123.859L120.66 86.4206ZM117.859 83.5729H120.695C121.578 83.5729 122.262 83.3503 122.746 82.9049C123.23 82.4518 123.473 81.8307 123.473 81.0417C123.473 80.237 123.242 79.6042 122.781 79.1432C122.328 78.6823 121.629 78.4518 120.684 78.4518H117.859V83.5729Z" fill="white"/>
</svg>
